<?xml version="1.0" standalone="no"?>
<!DOCTYPE svg PUBLIC "-//W3C//DTD SVG 20010904//EN"
 "http://www.w3.org/TR/2001/REC-SVG-20010904/DTD/svg10.dtd">
<svg version="1.0" xmlns="http://www.w3.org/2000/svg"
 width="720.000000pt" height="720.000000pt" viewBox="0 0 720.000000 720.000000"
 preserveAspectRatio="xMidYMid meet">
<metadata>
Created by potrace 1.14, written by Peter Selinger 2001-2017
</metadata>
<g transform="translate(0.000000,720.000000) scale(0.100000,-0.100000)"
fill="#000000" stroke="none">
<path d="M0 4355 l0 -2844 42 15 c65 23 280 70 403 89 171 25 464 92 577 131
57 20 186 64 288 99 102 35 199 69 217 76 65 26 54 -26 -15 -73 -26 -17 -77
-57 -113 -89 -70 -61 -90 -69 -229 -90 -36 -5 -92 -12 -125 -15 -102 -9 -245
-51 -245 -72 0 -4 31 -18 70 -30 38 -12 104 -36 146 -54 69 -29 74 -33 58 -45
-10 -7 -24 -11 -32 -8 -7 2 -10 0 -7 -5 16 -25 -241 1 -348 36 -101 33 -240
45 -305 26 -26 -7 -78 -16 -117 -20 -38 -4 -79 -13 -90 -18 -11 -6 -55 -17
-98 -25 l-77 -13 0 -713 0 -713 3600 0 3600 0 0 602 0 602 -28 -27 c-15 -14
-39 -28 -52 -29 -23 -3 -25 1 -28 42 -2 24 -7 49 -12 55 -6 7 -2 15 11 23 26
16 24 32 -4 32 -13 0 -36 14 -52 30 -16 17 -25 30 -21 30 5 0 -4 10 -20 22
-16 12 -32 26 -35 31 -3 5 -68 10 -143 11 -104 2 -139 0 -147 -11 -6 -7 -22
-13 -35 -13 -12 0 -26 -4 -29 -10 -8 -14 -55 -8 -55 7 0 6 11 24 25 39 14 15
25 35 25 46 0 18 -7 19 -156 13 -111 -4 -161 -2 -177 7 -12 6 -49 13 -82 14
-92 3 -165 15 -159 26 12 19 97 48 187 64 115 21 132 29 94 43 -16 6 -40 11
-55 11 -49 0 -344 65 -405 89 -16 6 -44 13 -62 15 -20 3 -53 20 -79 41 -25 20
-51 38 -58 39 -24 3 -158 95 -158 108 1 45 23 41 290 -62 286 -110 634 -218
816 -254 158 -32 466 -130 561 -179 18 -10 34 -17 38 -17 3 0 5 1296 5 2880
l0 2880 -3600 0 -3600 0 0 -2845z m3551 2532 c-1 -4 -1 -14 -1 -22 0 -9 -9
-15 -23 -15 -12 0 -40 -9 -62 -20 -22 -11 -46 -20 -54 -20 -32 0 -164 -72
-205 -112 -63 -62 -123 -109 -170 -133 -41 -21 -89 -52 -156 -100 -19 -14 -47
-33 -61 -43 -33 -22 -159 -138 -159 -146 0 -13 39 -5 130 28 52 19 103 37 113
41 34 14 16 -4 -44 -44 -34 -23 -63 -41 -65 -41 -10 0 -173 -107 -228 -149
-34 -25 -87 -64 -119 -85 -61 -41 -198 -186 -258 -271 -55 -79 -91 -145 -79
-145 7 0 55 42 108 94 129 125 234 212 296 243 46 24 50 24 62 8 9 -13 20 -16
39 -11 15 4 25 3 23 -1 -2 -4 -12 -25 -21 -45 -10 -21 -21 -38 -26 -38 -4 0
-23 -14 -42 -30 -59 -52 -69 -60 -75 -60 -14 0 -134 -112 -134 -125 0 -7 -12
-21 -27 -31 -16 -9 -100 -90 -188 -178 -150 -151 -158 -161 -132 -164 16 -2
56 10 94 27 41 19 81 31 107 31 l41 -1 -32 -27 c-34 -29 -139 -107 -179 -133
-62 -41 -207 -186 -278 -278 -43 -57 -75 -105 -72 -108 3 -3 40 25 82 63 114
104 284 229 284 209 0 -3 -30 -39 -67 -79 -321 -344 -333 -358 -364 -418 -10
-20 -31 -54 -45 -75 -14 -21 -57 -101 -94 -178 -74 -150 -91 -210 -150 -520
-27 -140 -30 -181 -30 -335 -1 -96 4 -211 10 -255 38 -280 57 -381 125 -652
41 -166 78 -310 81 -320 5 -17 5 -17 -5 -1 -37 57 -160 507 -220 803 -70 345
-67 670 9 1018 26 121 153 550 189 640 50 125 309 645 410 821 84 149 115 192
251 350 167 196 217 248 445 461 229 215 385 340 530 428 78 48 263 122 351
140 72 16 86 16 85 4z m297 -20 c97 -32 315 -151 386 -211 34 -29 97 -79 142
-113 239 -181 507 -463 679 -714 28 -40 69 -95 93 -123 94 -110 311 -490 381
-667 79 -201 266 -929 291 -1134 7 -55 13 -206 13 -335 0 -216 -3 -251 -31
-428 -18 -106 -43 -246 -58 -310 -54 -241 -246 -860 -276 -887 -13 -12 -8 15
27 135 13 47 37 137 53 200 16 63 57 223 91 355 62 239 80 348 101 585 6 69
13 139 16 155 11 71 10 360 -2 470 -11 105 -39 269 -49 286 -2 3 -13 41 -25
84 -26 98 -123 300 -182 380 -124 167 -299 359 -378 415 -19 14 -58 45 -86 70
-28 25 -64 55 -80 67 -53 41 7 12 96 -45 176 -114 370 -282 444 -387 26 -36
49 -65 52 -65 11 0 -5 59 -29 106 -51 100 -188 259 -328 379 -48 42 -99 92
-114 110 l-25 34 32 -13 c18 -8 69 -41 113 -74 44 -32 93 -68 110 -78 l29 -19
-34 63 c-36 66 -146 198 -282 338 -43 45 -78 86 -78 91 0 6 -9 21 -20 34 -11
13 -23 29 -27 34 -5 6 -31 36 -59 67 -127 141 -138 173 -33 102 104 -71 188
-146 265 -237 84 -99 110 -127 119 -127 8 0 -33 80 -60 115 -12 17 -34 53 -49
80 -93 168 -309 372 -534 505 -40 23 -71 45 -68 47 3 3 31 -11 64 -31 59 -35
196 -106 207 -106 7 0 -47 54 -161 161 -44 42 -94 94 -110 115 -16 21 -44 52
-63 69 -19 16 -40 35 -46 42 -7 6 -56 41 -109 78 -54 36 -125 86 -158 111 -33
24 -66 44 -73 44 -8 0 -21 7 -29 15 -8 9 -30 18 -48 20 -109 13 -193 27 -209
35 -10 6 -28 10 -41 10 -13 0 -29 4 -36 8 -17 11 124 5 163 -7 61 -19 95 -21
95 -7 0 26 -149 76 -231 76 -43 0 -63 5 -85 23 l-29 22 35 7 c55 10 165 -1
238 -25z m-351 -113 c-3 -3 -12 -4 -19 -1 -8 3 -5 6 6 6 11 1 17 -2 13 -5z
m-112 -38 c-104 -49 -145 -66 -157 -66 -21 0 0 11 94 51 101 42 143 52 63 15z
m-142 -215 c-17 -17 -124 -71 -139 -71 -3 0 -31 -13 -64 -29 -73 -36 -105 -47
-96 -32 11 17 279 144 315 150 3 1 -4 -8 -16 -18z m317 -421 c0 -5 -6 -10 -14
-10 -8 0 -18 5 -21 10 -3 6 3 10 14 10 12 0 21 -4 21 -10z m490 -480 c12 -8
12 -10 -5 -10 -11 0 -27 5 -35 10 -12 8 -12 10 5 10 11 0 27 -5 35 -10z m-470
-120 c0 -5 -9 -10 -21 -10 -11 0 -17 5 -14 10 3 6 13 10 21 10 8 0 14 -4 14
-10z m-738 -1596 c108 -33 193 -86 233 -148 21 -32 16 -38 -45 -57 -116 -35
-283 -16 -386 45 -64 37 -134 106 -134 131 0 50 200 68 332 29z m1696 3 c20
-7 37 -17 39 -23 7 -20 -87 -112 -145 -144 -31 -17 -86 -38 -122 -47 -112 -26
-300 -3 -308 39 -6 30 67 97 145 134 124 60 284 76 391 41z"/>
</g>
</svg>
